<svg width="20" height="20" viewBox="0 0 20 20" fill="none" xmlns="http://www.w3.org/2000/svg">
<path d="M10 0C8.02219 0 6.08879 0.58649 4.4443 1.6853C2.79981 2.78412 1.51809 4.3459 0.761209 6.17316C0.00433286 8.00043 -0.1937 10.0111 0.192152 11.9509C0.578004 13.8907 1.53041 15.6725 2.92894 17.0711C4.32746 18.4696 6.10929 19.422 8.0491 19.8078C9.98891 20.1937 11.9996 19.9957 13.8268 19.2388C15.6541 18.4819 17.2159 17.2002 18.3147 15.5557C19.4135 13.9112 20 11.9778 20 10C19.9971 7.34874 18.9425 4.80691 17.0678 2.93218C15.1931 1.05745 12.6513 0.00294095 10 0ZM10 17.7778C8.4617 17.7778 6.95795 17.3216 5.6789 16.467C4.39985 15.6123 3.40296 14.3976 2.81427 12.9764C2.22559 11.5552 2.07157 9.99137 2.37167 8.48263C2.67178 6.97389 3.41254 5.58802 4.50028 4.50028C5.58803 3.41254 6.97389 2.67178 8.48263 2.37167C9.99137 2.07156 11.5552 2.22559 12.9764 2.81427C14.3976 3.40295 15.6124 4.39985 16.467 5.6789C17.3216 6.95795 17.7778 8.4617 17.7778 10C17.7756 12.0621 16.9554 14.0391 15.4973 15.4973C14.0391 16.9554 12.0621 17.7756 10 17.7778ZM13.7491 6.25093C13.8527 6.35415 13.9348 6.47681 13.9909 6.61187C14.047 6.74692 14.0759 6.89172 14.0759 7.03796C14.0759 7.1842 14.047 7.329 13.9909 7.46406C13.9348 7.59911 13.8527 7.72177 13.7491 7.825L9.72222 11.8518H11.4815C11.7762 11.8518 12.0588 11.9689 12.2672 12.1773C12.4755 12.3857 12.5926 12.6683 12.5926 12.963C12.5926 13.2576 12.4755 13.5403 12.2672 13.7486C12.0588 13.957 11.7762 14.0741 11.4815 14.0741H7.03704C6.74235 14.0741 6.45974 13.957 6.25137 13.7486C6.04299 13.5403 5.92593 13.2576 5.92593 12.963V8.51852C5.92593 8.22383 6.04299 7.94122 6.25137 7.73284C6.45974 7.52447 6.74235 7.40741 7.03704 7.40741C7.33172 7.40741 7.61434 7.52447 7.82271 7.73284C8.03109 7.94122 8.14815 8.22383 8.14815 8.51852V10.2778L12.1769 6.24815C12.2802 6.14502 12.4029 6.06328 12.5379 6.00761C12.6729 5.95193 12.8175 5.9234 12.9635 5.92366C13.1096 5.92392 13.2541 5.95296 13.3889 6.00911C13.5237 6.06526 13.6461 6.14744 13.7491 6.25093Z" fill="#55AAFF"/>
</svg>
