<svg width="20" height="20" viewBox="0 0 20 20" fill="none" xmlns="http://www.w3.org/2000/svg">
<path d="M10 0C8.02219 0 6.08879 0.58649 4.4443 1.6853C2.79981 2.78412 1.51809 4.3459 0.761209 6.17316C0.00433286 8.00043 -0.1937 10.0111 0.192152 11.9509C0.578004 13.8907 1.53041 15.6725 2.92894 17.0711C4.32746 18.4696 6.10929 19.422 8.0491 19.8078C9.98891 20.1937 11.9996 19.9957 13.8268 19.2388C15.6541 18.4819 17.2159 17.2002 18.3147 15.5557C19.4135 13.9112 20 11.9778 20 10C19.9971 7.34874 18.9425 4.80691 17.0678 2.93218C15.1931 1.05745 12.6513 0.00294095 10 0ZM10 17.7778C8.4617 17.7778 6.95795 17.3216 5.6789 16.467C4.39985 15.6123 3.40296 14.3976 2.81427 12.9764C2.22559 11.5552 2.07157 9.99137 2.37167 8.48263C2.67178 6.97389 3.41254 5.58802 4.50028 4.50028C5.58803 3.41254 6.97389 2.67178 8.48263 2.37167C9.99137 2.07156 11.5552 2.22559 12.9764 2.81427C14.3976 3.40295 15.6124 4.39985 16.467 5.6789C17.3216 6.95795 17.7778 8.4617 17.7778 10C17.7756 12.0621 16.9554 14.0391 15.4973 15.4973C14.0391 16.9554 12.0621 17.7756 10 17.7778ZM14.4898 9.21389C14.5934 9.31711 14.6756 9.43977 14.7317 9.57483C14.7878 9.70989 14.8166 9.85469 14.8166 10.0009C14.8166 10.1472 14.7878 10.292 14.7317 10.427C14.6756 10.5621 14.5934 10.6847 14.4898 10.788L11.5269 13.7509C11.4235 13.8543 11.3008 13.9363 11.1658 13.9922C11.0307 14.0481 10.886 14.0769 10.7398 14.0769C10.5937 14.0769 10.4489 14.0481 10.3139 13.9922C10.1788 13.9363 10.0561 13.8543 9.95278 13.7509C9.84942 13.6476 9.76744 13.5249 9.7115 13.3898C9.65557 13.2548 9.62678 13.1101 9.62678 12.9639C9.62678 12.8177 9.65557 12.673 9.7115 12.5379C9.76744 12.4029 9.84942 12.2802 9.95278 12.1768L11.0185 11.1111H6.2963C6.00161 11.1111 5.719 10.994 5.51063 10.7857C5.30225 10.5773 5.18519 10.2947 5.18519 10C5.18519 9.70531 5.30225 9.4227 5.51063 9.21432C5.719 9.00595 6.00161 8.88889 6.2963 8.88889H11.0185L9.95185 7.82315C9.8485 7.71979 9.76651 7.59709 9.71058 7.46205C9.65464 7.32701 9.62585 7.18228 9.62585 7.03611C9.62585 6.88994 9.65464 6.74521 9.71058 6.61017C9.76651 6.47513 9.8485 6.35243 9.95185 6.24907C10.0552 6.14572 10.1779 6.06373 10.313 6.0078C10.448 5.95186 10.5927 5.92307 10.7389 5.92307C10.8851 5.92307 11.0298 5.95186 11.1648 6.0078C11.2999 6.06373 11.4226 6.14572 11.5259 6.24907L14.4898 9.21389Z" fill="#55AAFF"/>
</svg>
