<svg width="20" height="20" viewBox="0 0 20 20" fill="none" xmlns="http://www.w3.org/2000/svg">
<path d="M15.4167 20H4.58332C2.05316 19.9972 0.00277344 17.9468 0 15.4167V4.58332C0.00277344 2.05316 2.05316 0.00277344 4.58332 0H15.4166C17.9468 0.00277344 19.9972 2.05316 20 4.58332V15.4166C19.9972 17.9468 17.9468 19.9972 15.4167 20ZM4.58332 2.5C3.43273 2.5 2.5 3.43273 2.5 4.58332V15.4166C2.5 16.5673 3.43273 17.5 4.58332 17.5H15.4166C16.5673 17.5 17.5 16.5673 17.5 15.4167V4.58332C17.5 3.43273 16.5673 2.5 15.4167 2.5H4.58332Z" fill="#4AE489"/>
<path d="M8.11847 15C7.60956 15.0003 7.12166 14.7924 6.76358 14.4226L4.35459 11.9627C3.882 11.4796 3.88178 10.6961 4.35406 10.2128C4.35425 10.2126 4.35444 10.2124 4.35459 10.2122C4.82699 9.72913 5.59275 9.72913 6.06515 10.2122L8.11847 12.3116L13.9349 6.36228C14.4072 5.87924 15.173 5.87924 15.6454 6.36228C16.118 6.84536 16.1182 7.62881 15.6459 8.1122C15.6457 8.11239 15.6456 8.11258 15.6454 8.11274L9.47258 14.4267C9.11412 14.795 8.62656 15.0014 8.11847 15Z" fill="#4AE489"/>
</svg>
