<svg width="16" height="16" viewBox="0 0 12 12" fill="none" xmlns="http://www.w3.org/2000/svg">
<path d="M4.75478 4.00445C4.90302 4.00445 5.04793 4.04841 5.17118 4.13077C5.29444 4.21314 5.3905 4.33021 5.44723 4.46718C5.50396 4.60415 5.5188 4.75486 5.48988 4.90027C5.46096 5.04567 5.38958 5.17923 5.28476 5.28407C5.17994 5.3889 5.04639 5.46029 4.901 5.48921C4.75561 5.51813 4.60491 5.50329 4.46796 5.44655C4.331 5.38982 4.21394 5.29374 4.13159 5.17048C4.04923 5.04721 4.00527 4.90228 4.00527 4.75403C4.00527 4.55523 4.08424 4.36457 4.2248 4.224C4.36536 4.08342 4.556 4.00445 4.75478 4.00445ZM10.2512 3.50473C9.80253 3.52129 9.37745 3.70976 9.06394 4.03112C8.75042 4.35247 8.57248 4.7821 8.56696 5.23105C8.56144 5.67999 8.72875 6.11387 9.03427 6.44284C9.33979 6.77181 9.7601 6.97069 10.2082 6.99828C9.58359 8.78979 7.98665 10.0966 5.7886 10.4963C5.75489 10.5027 5.72017 10.5013 5.68709 10.4922C5.65401 10.4831 5.62345 10.4666 5.59772 10.4439C5.56817 10.4197 5.54443 10.3892 5.52825 10.3546C5.51208 10.32 5.50389 10.2822 5.50429 10.244V9.43693C6.53512 9.27682 7.48317 8.7776 8.19851 8.01821C8.26619 7.94672 8.31913 7.86259 8.35431 7.77063C8.38948 7.67867 8.4062 7.58068 8.40351 7.48226C8.40082 7.38383 8.37877 7.28691 8.33862 7.19701C8.29848 7.10711 8.24102 7.026 8.16953 6.9583C8.09804 6.89061 8.01392 6.83767 7.92196 6.80249C7.83001 6.76731 7.73204 6.75059 7.63363 6.75328C7.53521 6.75597 7.43829 6.77802 7.3484 6.81817C7.25851 6.85833 7.17741 6.91579 7.10973 6.98729C6.80789 7.30907 6.44302 7.56525 6.03787 7.73987C5.63272 7.91448 5.19595 8.00379 4.75478 8.00222C4.19791 8.00275 3.65026 7.86007 3.16442 7.58789C2.67858 7.31571 2.27088 6.92317 1.98047 6.44797C1.69006 5.97278 1.5267 5.43088 1.50607 4.87434C1.48545 4.31779 1.60825 3.76529 1.8627 3.26989C2.11714 2.7745 2.49467 2.35285 2.95902 2.04545C3.42338 1.73805 3.95897 1.55522 4.51435 1.51452C5.06974 1.47382 5.62625 1.57662 6.13046 1.81304C6.63466 2.04947 7.06961 2.41157 7.39354 2.86458C7.45052 2.9455 7.52296 3.01434 7.60667 3.06712C7.69039 3.1199 7.78373 3.15557 7.88131 3.17209C7.97888 3.1886 8.07876 3.18562 8.17518 3.16333C8.2716 3.14103 8.36265 3.09986 8.44308 3.04219C8.52351 2.98452 8.59172 2.91149 8.64378 2.82732C8.69584 2.74315 8.73071 2.6495 8.74639 2.55177C8.76207 2.45405 8.75825 2.35419 8.73513 2.25795C8.71202 2.16172 8.67008 2.07101 8.61174 1.99107C8.15745 1.35394 7.55273 0.838997 6.85138 0.492065C6.15004 0.145133 5.37381 -0.0230317 4.59178 0.00253481C3.80975 0.0281013 3.04617 0.246606 2.36897 0.638606C1.69178 1.03061 1.12197 1.58395 0.710265 2.24939C0.298555 2.91483 0.0577062 3.67173 0.00914994 4.45275C-0.0394064 5.23377 0.105835 6.01469 0.431952 6.72601C0.758068 7.43733 1.25494 8.057 1.87837 8.52988C2.50179 9.00275 3.23243 9.31417 4.00527 9.43643V10.246C4.00507 10.5035 4.0616 10.7579 4.17085 10.9911C4.28009 11.2243 4.43937 11.4306 4.63736 11.5952C4.94848 11.8563 5.34151 11.9996 5.74762 12C5.85118 11.9998 5.95452 11.9905 6.05642 11.972C9.61158 11.3264 12 8.62688 12 5.25375C11.9967 4.79089 11.8114 4.34792 11.4842 4.02062C11.1569 3.69332 10.714 3.508 10.2512 3.50473Z" fill="#868E96"/>
</svg>
