<svg width="16" height="16" viewBox="0 0 16 16" fill="none" xmlns="http://www.w3.org/2000/svg">
<path d="M8 0C6.41775 0 4.87103 0.469192 3.55544 1.34824C2.23985 2.22729 1.21447 3.47672 0.608967 4.93853C0.00346629 6.40034 -0.15496 8.00887 0.153721 9.56072C0.462403 11.1126 1.22433 12.538 2.34315 13.6569C3.46197 14.7757 4.88743 15.5376 6.43928 15.8463C7.99113 16.155 9.59966 15.9965 11.0615 15.391C12.5233 14.7855 13.7727 13.7602 14.6518 12.4446C15.5308 11.129 16 9.58225 16 8C15.9976 5.87899 15.154 3.84553 13.6543 2.34574C12.1545 0.845963 10.121 0.00235276 8 0ZM8 14.2222C6.76936 14.2222 5.56636 13.8573 4.54312 13.1736C3.51988 12.4899 2.72236 11.5181 2.25142 10.3811C1.78047 9.24418 1.65725 7.9931 1.89734 6.7861C2.13743 5.57911 2.73003 4.47042 3.60023 3.60022C4.47042 2.73003 5.57911 2.13742 6.78611 1.89734C7.9931 1.65725 9.24418 1.78047 10.3811 2.25142C11.5181 2.72236 12.4899 3.51988 13.1736 4.54312C13.8573 5.56636 14.2222 6.76936 14.2222 8C14.2205 9.64969 13.5643 11.2313 12.3978 12.3978C11.2313 13.5643 9.6497 14.2205 8 14.2222ZM13.037 8C13.037 8.23575 12.9434 8.46184 12.7767 8.62854C12.61 8.79524 12.3839 8.88889 12.1481 8.88889H8C7.76425 8.88889 7.53816 8.79524 7.37146 8.62854C7.20476 8.46184 7.11111 8.23575 7.11111 8V3.85185C7.11111 3.6161 7.20476 3.39001 7.37146 3.22331C7.53816 3.05661 7.76425 2.96296 8 2.96296C8.23575 2.96296 8.46184 3.05661 8.62854 3.22331C8.79524 3.39001 8.88889 3.6161 8.88889 3.85185V7.11111H12.1481C12.3839 7.11111 12.61 7.20476 12.7767 7.37146C12.9434 7.53816 13.037 7.76425 13.037 8Z" fill="#47494B"/>
</svg>
