<svg width="20" height="20" viewBox="0 0 20 20" fill="none" xmlns="http://www.w3.org/2000/svg">
<path d="M14.5115 5.48846C13.8609 4.83746 12.8058 4.83714 12.1548 5.48773C12.1546 5.48799 12.1543 5.48826 12.154 5.48846L9.9999 7.64375L7.84575 5.48846C7.19475 4.83746 6.13926 4.83746 5.48831 5.48846C4.83735 6.13947 4.8373 7.19496 5.48831 7.84591L7.64354 10.0001L5.48826 12.1542C4.83725 12.8053 4.83725 13.8607 5.48826 14.5117C6.13926 15.1627 7.19475 15.1627 7.8457 14.5117L9.9999 12.3565L12.154 14.5117C12.805 15.1628 13.8605 15.1628 14.5115 14.5117C15.1625 13.8607 15.1625 12.8053 14.5115 12.1543L12.3562 10.0001L14.5115 7.84596C15.1625 7.19537 15.1629 6.14025 14.5123 5.48925C14.512 5.48898 14.5118 5.48872 14.5115 5.48846Z" fill="#55AAFF"/>
<path d="M15.4167 20H4.58332C2.05316 19.9972 0.00277344 17.9468 0 15.4167V4.58332C0.00277344 2.05316 2.05316 0.00277344 4.58332 0H15.4166C17.9468 0.00277344 19.9972 2.05316 20 4.58332V15.4166C19.9972 17.9468 17.9468 19.9972 15.4167 20ZM4.58332 2.5C3.43273 2.5 2.5 3.43273 2.5 4.58332V15.4166C2.5 16.5673 3.43273 17.5 4.58332 17.5H15.4166C16.5673 17.5 17.5 16.5673 17.5 15.4167V4.58332C17.5 3.43273 16.5673 2.5 15.4167 2.5H4.58332Z" fill="#55AAFF"/>
</svg>
