<svg width="13" height="13" viewBox="0 0 13 13" fill="none" xmlns="http://www.w3.org/2000/svg">
<path d="M12.5015 8.06574C12.4648 8.54202 12.3427 9.00781 12.141 9.44081C12.053 9.62876 11.894 9.77406 11.6988 9.84474C11.5037 9.91542 11.2885 9.90569 11.1006 9.8177C10.9126 9.72971 10.7673 9.57066 10.6966 9.37555C10.626 9.18043 10.6357 8.96522 10.7237 8.77727C10.8458 8.51441 10.9195 8.23167 10.9412 7.94263C10.9937 7.25574 10.7809 6.57486 10.3467 6.04004C9.91248 5.50522 9.28985 5.1571 8.60683 5.0673C8.43662 5.04468 8.27857 4.9667 8.15705 4.84537C8.03554 4.72405 7.95731 4.56612 7.93442 4.39594C7.88776 4.04418 7.77146 3.70524 7.59233 3.39892C7.4132 3.09261 7.17482 2.82506 6.89113 2.6119C6.60273 2.39464 6.27386 2.23714 5.9238 2.14864C5.57373 2.06014 5.20952 2.04241 4.85252 2.09651C4.30879 2.17833 3.80426 2.42816 3.40961 2.81103C3.01495 3.1939 2.74994 3.69062 2.65168 4.23162C2.53678 4.81591 2.62051 5.42184 2.88956 5.95306C3.05094 6.25537 3.086 6.6093 2.98706 6.93739C2.88812 7.26548 2.66325 7.54103 2.36165 7.70372C2.06686 7.85074 1.83133 8.0943 1.69427 8.39385C1.55721 8.6934 1.5269 9.03086 1.60839 9.35004C1.70883 9.66619 1.90956 9.94098 2.18018 10.1328C2.4508 10.3246 2.77656 10.4231 3.10813 10.4132H4.42842C4.63595 10.4132 4.83497 10.4956 4.98171 10.6423C5.12846 10.7891 5.2109 10.9881 5.2109 11.1956C5.2109 11.4032 5.12846 11.6022 4.98171 11.7489C4.83497 11.8957 4.63595 11.9781 4.42842 11.9781H3.10813C2.42956 11.9913 1.76573 11.7794 1.2204 11.3753C0.675069 10.9713 0.278978 10.3979 0.0940388 9.74493C-0.0635738 9.12962 -0.0222768 8.48019 0.212007 7.8898C0.446291 7.2994 0.861526 6.79836 1.39816 6.45854C1.01586 5.59938 0.930292 4.63743 1.15494 3.72428C1.3796 2.81113 1.90169 1.99868 2.63897 1.41495C3.37625 0.831227 4.2868 0.509407 5.22713 0.500203C6.16747 0.490999 7.08414 0.794934 7.8327 1.36412C8.57902 1.93037 9.11919 2.7256 9.37053 3.62807C10.3276 3.88733 11.1641 4.47254 11.7357 5.28271C12.3073 6.09289 12.5781 7.07719 12.5015 8.06574ZM9.67778 9.89152H8.86244V7.5441C8.86244 7.33657 8.78 7.13754 8.63326 6.9908C8.48652 6.84406 8.28749 6.76162 8.07997 6.76162C7.87244 6.76162 7.67341 6.84406 7.52667 6.9908C7.37993 7.13754 7.29749 7.33657 7.29749 7.5441V9.89152H6.48215C6.3822 9.89141 6.28447 9.92097 6.20133 9.97644C6.11819 10.0319 6.05339 10.1108 6.01512 10.2032C5.97686 10.2955 5.96686 10.3971 5.98639 10.4951C6.00592 10.5932 6.0541 10.6832 6.12482 10.7538L7.72264 12.3516C7.7695 12.3986 7.82519 12.436 7.88651 12.4614C7.94783 12.4869 8.01357 12.5 8.07997 12.5C8.14636 12.5 8.2121 12.4869 8.27342 12.4614C8.33474 12.436 8.39043 12.3986 8.43729 12.3516L10.0351 10.7538C10.1058 10.6832 10.154 10.5932 10.1735 10.4951C10.1931 10.3971 10.1831 10.2955 10.1448 10.2032C10.1065 10.1108 10.0417 10.0319 9.9586 9.97644C9.87546 9.92097 9.77773 9.89141 9.67778 9.89152Z" fill="#868E96"/>
</svg>
