<svg width="12" height="12" viewBox="0 0 12 12" fill="none" xmlns="http://www.w3.org/2000/svg">
<path d="M11.4875 4.34698L7.94451 0.803973C6.86979 -0.267991 5.13024 -0.267991 4.05551 0.803973L0.512514 4.34698C0.183264 4.67447 -0.00128235 5.12007 6.70796e-06 5.58448V10.7735C0.00110827 11.4508 0.550201 11.9994 1.22752 12H10.7725C11.4498 11.9995 11.9989 11.4508 12 10.7735V5.58448C12.0013 5.12007 11.8168 4.67447 11.4875 4.34698ZM10.5 10.5H8.00001V8.90898C8.00001 7.85467 7.14532 6.99997 6.09101 6.99997H5.90902C4.8547 6.99997 4.00001 7.85467 4.00001 8.90898V10.5H1.50001V5.58448C1.50017 5.51818 1.52637 5.45462 1.57301 5.40748L5.11601 1.86448C5.60409 1.37625 6.39555 1.37615 6.88378 1.86424C6.88385 1.86431 6.88394 1.86441 6.88401 1.86448L10.427 5.40748C10.4736 5.45462 10.4999 5.51818 10.5 5.58448V10.5H10.5Z" fill="#495057"/>
</svg>
