<svg width="95" height="69" viewBox="0 0 95 69" fill="none" xmlns="http://www.w3.org/2000/svg">
<path opacity="0.2" d="M59.8148 0H86.2037C88.5366 0 90.774 0.908703 92.4236 2.5262C94.0732 4.14371 95 6.33751 95 8.625V36.225C95 38.5125 94.0732 40.7063 92.4236 42.3238C90.774 43.9413 88.5366 44.85 86.2037 44.85H61.5741V46.575C61.5741 49.7775 62.8715 52.8488 65.181 55.1133C67.4905 57.3778 70.6228 58.65 73.8889 58.65C75.2886 58.65 76.6311 59.1952 77.6208 60.1657C78.6106 61.1362 79.1667 62.4525 79.1667 63.825C79.1667 65.1975 78.6106 66.5138 77.6208 67.4843C76.6311 68.4548 75.2886 69 73.8889 69C67.8254 68.9932 62.0123 66.6283 57.7248 62.4243C53.4373 58.2203 51.0255 52.5204 51.0185 46.575V8.625C51.0185 6.33751 51.9453 4.14371 53.5949 2.5262C55.2445 0.908703 57.4819 0 59.8148 0ZM61.5741 34.5H84.4444V10.35H61.5741V34.5ZM8.7963 0H35.1852C37.5181 0 39.7555 0.908703 41.4051 2.5262C43.0547 4.14371 43.9815 6.33751 43.9815 8.625V36.225C43.9815 38.5125 43.0547 40.7063 41.4051 42.3238C39.7555 43.9413 37.5181 44.85 35.1852 44.85H10.5555V46.575C10.5555 49.7775 11.853 52.8488 14.1625 55.1133C16.472 57.3778 19.6043 58.65 22.8704 58.65C24.2701 58.65 25.6125 59.1952 26.6023 60.1657C27.5921 61.1362 28.1481 62.4525 28.1481 63.825C28.1481 65.1975 27.5921 66.5138 26.6023 67.4843C25.6125 68.4548 24.2701 69 22.8704 69C16.8069 68.9932 10.9938 66.6283 6.70628 62.4243C2.41877 58.2203 0.00698421 52.5204 0 46.575V8.625C0 6.33751 0.926745 4.14371 2.57637 2.5262C4.226 0.908703 6.46337 0 8.7963 0ZM10.5555 34.5H33.4259V10.35H10.5555V34.5Z" fill="#55AAFF"/>
</svg>
