<svg width="21" height="21" viewBox="0 0 21 21" fill="none" xmlns="http://www.w3.org/2000/svg">
<path d="M20.6542 19.0044L16.0425 14.391C17.4253 12.5892 18.0708 10.3289 17.8483 8.06869C17.6257 5.80845 16.5517 3.71748 14.8441 2.21996C13.1364 0.72244 10.9231 -0.0694993 8.65304 0.00479128C6.38298 0.0790819 4.22616 1.01404 2.62013 2.62C1.01409 4.22597 0.0790855 6.38268 0.00479151 8.65264C-0.0695025 10.9226 0.722474 13.1358 2.22006 14.8434C3.71765 16.5509 5.80872 17.6249 8.06907 17.8474C10.3294 18.07 12.5898 17.4244 14.3917 16.0418L19.0073 20.6581C19.1156 20.7665 19.2443 20.8525 19.386 20.9111C19.5276 20.9698 19.6794 21 19.8327 21C19.986 21 20.1378 20.9698 20.2794 20.9111C20.421 20.8525 20.5497 20.7665 20.6581 20.6581C20.7665 20.5497 20.8525 20.421 20.9111 20.2794C20.9698 20.1378 21 19.986 21 19.8327C21 19.6794 20.9698 19.5277 20.9111 19.386C20.8525 19.2444 20.7665 19.1157 20.6581 19.0073L20.6542 19.0044ZM2.3502 8.95318C2.3502 7.64721 2.73748 6.37057 3.46307 5.2847C4.18866 4.19883 5.21997 3.35249 6.42658 2.85272C7.63319 2.35295 8.96092 2.22219 10.2418 2.47697C11.5228 2.73175 12.6994 3.36063 13.6229 4.28409C14.5464 5.20755 15.1753 6.38411 15.4301 7.66498C15.6849 8.94585 15.5541 10.2735 15.0543 11.4801C14.5545 12.6866 13.7082 13.7179 12.6222 14.4434C11.5363 15.169 10.2596 15.5563 8.95359 15.5563C7.20282 15.5545 5.52426 14.8582 4.28628 13.6203C3.04829 12.3823 2.352 10.7039 2.3502 8.95318Z" fill="#98A1A9"/>
</svg>
