<svg width="20" height="20" viewBox="0 0 48 40" fill="none" xmlns="http://www.w3.org/2000/svg">
<path d="M15.095 39.5014C33.2083 39.5014 43.1155 24.4946 43.1155 11.4809C43.1155 11.0546 43.1155 10.6303 43.0867 10.2079C45.0141 8.81384 46.6778 7.0877 48 5.11033C46.2028 5.90713 44.2961 6.42944 42.3437 6.65977C44.3996 5.42915 45.9383 3.49333 46.6733 1.21273C44.7402 2.35994 42.6253 3.16838 40.4198 3.60313C38.935 2.02428 36.9712 0.97881 34.8324 0.628496C32.6935 0.278183 30.4988 0.642557 28.5879 1.66523C26.677 2.68791 25.1564 4.31187 24.2615 6.28582C23.3665 8.25977 23.1471 10.4737 23.6371 12.5849C19.7218 12.3885 15.8915 11.371 12.3949 9.59834C8.89831 7.82572 5.81353 5.33765 3.3408 2.29561C2.08146 4.4636 1.69574 7.03006 2.2622 9.47245C2.82865 11.9148 4.30468 14.0495 6.38976 15.4418C4.82246 15.3959 3.2893 14.9731 1.92 14.2092V14.334C1.92062 16.6077 2.7077 18.8112 4.14774 20.5707C5.58778 22.3303 7.59212 23.5375 9.8208 23.9878C8.37096 24.3832 6.84975 24.441 5.37408 24.1567C6.00363 26.1134 7.22886 27.8244 8.87848 29.0506C10.5281 30.2768 12.5197 30.9569 14.5747 30.9958C12.5329 32.6007 10.1946 33.7873 7.69375 34.4878C5.19287 35.1882 2.57843 35.3886 0 35.0777C4.50367 37.9677 9.74385 39.5007 15.095 39.4937" fill="#1DA1F2"/>
</svg>
