<svg width="20" height="20" viewBox="0 0 20 20" fill="none" xmlns="http://www.w3.org/2000/svg">
<path d="M15.4167 20H4.58332C2.05316 19.9972 0.00277344 17.9468 0 15.4167V4.58332C0.00277344 2.05316 2.05316 0.00277344 4.58332 0H15.4166C17.9468 0.00277344 19.9972 2.05316 20 4.58332V15.4166C19.9972 17.9468 17.9468 19.9972 15.4167 20ZM4.58332 2.5C3.43273 2.5 2.5 3.43273 2.5 4.58332V15.4166C2.5 16.5673 3.43273 17.5 4.58332 17.5H15.4166C16.5673 17.5 17.5 16.5673 17.5 15.4167V4.58332C17.5 3.43273 16.5673 2.5 15.4167 2.5H4.58332Z" fill="#FF7E79"/>
<path d="M11.3301 9.98492L13.7283 7.58649C13.884 7.40968 13.9665 7.18028 13.9589 6.9449C13.9514 6.70953 13.8545 6.48585 13.6878 6.31932C13.5211 6.1528 13.2972 6.05594 13.0616 6.04843C12.826 6.04091 12.5964 6.12331 12.4195 6.27887L10.0188 8.67483L7.61382 6.27146C7.52768 6.18539 7.42542 6.11713 7.31287 6.07055C7.20032 6.02397 7.07969 6 6.95786 6C6.83604 6 6.71541 6.02397 6.60286 6.07055C6.49031 6.11713 6.38805 6.18539 6.3019 6.27146C6.21576 6.35752 6.14743 6.45969 6.10081 6.57213C6.05419 6.68458 6.0302 6.8051 6.0302 6.92681C6.0302 7.04852 6.05419 7.16904 6.10081 7.28148C6.14743 7.39393 6.21576 7.4961 6.3019 7.58216L8.7075 9.98492L6.30932 12.3827C6.21527 12.4667 6.13936 12.569 6.08624 12.6833C6.03311 12.7976 6.00389 12.9216 6.00036 13.0476C5.99683 13.1736 6.01907 13.2989 6.06571 13.416C6.11235 13.5331 6.18242 13.6395 6.27162 13.7286C6.36082 13.8178 6.46729 13.8878 6.5845 13.9343C6.70171 13.9809 6.82721 14.0032 6.95331 13.9996C7.07942 13.9961 7.20347 13.9669 7.3179 13.9138C7.43232 13.8608 7.5347 13.7849 7.61877 13.691L10.0188 11.295L12.4164 13.691C12.5903 13.8648 12.8263 13.9624 13.0723 13.9624C13.3184 13.9624 13.5543 13.8648 13.7283 13.691C13.9023 13.5172 14 13.2814 14 13.0356C14 12.7898 13.9023 12.5541 13.7283 12.3803L11.3301 9.98492Z" fill="#FF7E79"/>
</svg>
