<svg width="20" height="20" viewBox="0 0 20 20" fill="none" xmlns="http://www.w3.org/2000/svg">
<path d="M18.8073 9.15267C18.6425 9.14347 18.4776 9.16719 18.3221 9.22244C18.1666 9.2777 18.0237 9.36338 17.9017 9.47449C17.7798 9.58559 17.6812 9.71988 17.6118 9.86951C17.5424 10.0191 17.5035 10.1811 17.4974 10.3459C17.4213 12.0472 16.7708 13.6725 15.6518 14.9567C14.5329 16.2409 13.0116 17.1082 11.3361 17.4172C9.66064 17.7261 7.92987 17.4585 6.42613 16.6579C4.92239 15.8573 3.73442 14.5711 3.05602 13.0089C2.37762 11.4468 2.24883 9.701 2.69064 8.0563C3.13245 6.4116 4.1188 4.96507 5.48878 3.95269C6.85877 2.9403 8.53154 2.42179 10.2342 2.48175C11.9369 2.54172 13.569 3.1766 14.8643 4.28285L13.9218 5.22494C13.8051 5.34164 13.7256 5.49031 13.6934 5.65215C13.6612 5.81399 13.6778 5.98175 13.7409 6.1342C13.8041 6.28665 13.9111 6.41696 14.0483 6.50865C14.1856 6.60035 14.347 6.6493 14.512 6.64934H18.3406C18.562 6.64934 18.7743 6.56143 18.9309 6.40494C19.0875 6.24845 19.1754 6.0362 19.1754 5.81489V1.98813C19.1754 1.82312 19.1264 1.66182 19.0347 1.52463C18.9429 1.38744 18.8126 1.28051 18.66 1.21737C18.5075 1.15423 18.3397 1.1377 18.1778 1.16989C18.0159 1.20207 17.8671 1.28151 17.7504 1.39818L16.6359 2.51216C14.9371 1.00917 12.7778 0.127877 10.512 0.0128748C8.2463 -0.102127 6.00873 0.555986 4.16641 1.87925C2.32409 3.20251 0.986425 5.11235 0.372853 7.29544C-0.240718 9.47853 -0.0937556 11.8052 0.789631 13.8939C1.67302 15.9825 3.24037 17.709 5.23456 18.7902C7.22875 19.8713 9.53136 20.2429 11.7646 19.844C13.9979 19.4451 16.0292 18.2994 17.5254 16.5948C19.0215 14.8902 19.8936 12.7279 19.9986 10.4628C20.0064 10.2985 19.9818 10.1344 19.9262 9.97967C19.8706 9.82496 19.785 9.68271 19.6744 9.56105C19.5638 9.4394 19.4303 9.34072 19.2815 9.27064C19.1327 9.20057 18.9716 9.16049 18.8073 9.15267V9.15267Z" fill="#787878"/>
<path d="M9.21925 6C8.89588 6 8.58576 6.1342 8.35711 6.37307C8.12846 6.61194 8 6.93592 8 7.27374V10.9192C8.00009 11.3696 8.17143 11.8015 8.47632 12.1199L9.93373 13.6424C10.1637 13.8745 10.4717 14.0029 10.7913 14C11.111 13.997 11.4168 13.8631 11.6429 13.6269C11.8689 13.3908 11.9972 13.0713 12 12.7373C12.0027 12.4034 11.8798 12.0816 11.6577 11.8414L10.4385 10.5676V7.27374C10.4385 6.93592 10.31 6.61194 10.0814 6.37307C9.85273 6.1342 9.54261 6 9.21925 6V6Z" fill="#787878"/>
</svg>
