<svg width="16" height="9" viewBox="0 0 16 9" fill="none" xmlns="http://www.w3.org/2000/svg">
<path d="M15.6922 1.77568L8.73801 8.69474C8.6411 8.7915 8.52595 8.86827 8.39915 8.92065C8.27236 8.97303 8.13642 9 7.99913 9C7.86184 9 7.7259 8.97303 7.59911 8.92065C7.47231 8.86827 7.35716 8.7915 7.26025 8.69474L0.306055 1.77568C0.110092 1.5807 -2.92009e-09 1.31626 0 1.04053C2.92009e-09 0.76479 0.110092 0.500348 0.306055 0.305374C0.502019 0.1104 0.767803 0.000865071 1.04494 0.000865068C1.32207 0.000865065 1.58786 0.1104 1.78382 0.305374L8 6.49015L14.2162 0.30451C14.4121 0.109536 14.6779 0 14.9551 0C15.2322 0 15.498 0.109536 15.6939 0.30451C15.8899 0.499484 16 0.763926 16 1.03966C16 1.3154 15.8899 1.57984 15.6939 1.77481L15.6922 1.77568Z" fill="#212529"/>
</svg>
