<svg width="11" height="7" viewBox="0 0 11 7" fill="none" xmlns="http://www.w3.org/2000/svg">
<path d="M10.7884 1.68378L6.00738 6.29649C5.94076 6.361 5.86159 6.41218 5.77442 6.4471C5.68725 6.48202 5.59379 6.5 5.4994 6.5C5.40501 6.5 5.31156 6.48202 5.22438 6.4471C5.13721 6.41218 5.05805 6.361 4.99142 6.29649L0.210413 1.68378C0.0756879 1.5538 -2.00756e-09 1.37751 0 1.19368C2.00756e-09 1.00986 0.0756879 0.833566 0.210413 0.703583C0.345138 0.5736 0.527865 0.500577 0.718395 0.500577C0.908925 0.500577 1.09165 0.5736 1.22638 0.703583L5.5 4.82677L9.77362 0.703007C9.90835 0.573024 10.0911 0.5 10.2816 0.5C10.4721 0.5 10.6549 0.573024 10.7896 0.703007C10.9243 0.832989 11 1.00928 11 1.19311C11 1.37693 10.9243 1.55322 10.7896 1.68321L10.7884 1.68378Z" fill="#868E96"/>
</svg>
