<svg width="10" height="10" viewBox="0 0 10 10" fill="none" xmlns="http://www.w3.org/2000/svg">
<path d="M9.78931 8.77904C9.92345 8.91317 9.99881 9.09509 9.99881 9.28478C9.99881 9.47447 9.92345 9.65639 9.78931 9.79052C9.65518 9.92465 9.47325 10 9.28355 10C9.09385 10 8.91192 9.92465 8.77778 9.79052L5 6.01177L1.22103 9.78933C1.08689 9.92346 0.904962 9.99881 0.715262 9.99881C0.525563 9.99881 0.343633 9.92346 0.209496 9.78933C0.0753579 9.6552 2.82674e-09 9.47328 0 9.28359C-2.82674e-09 9.0939 0.0753579 8.91198 0.209496 8.77785L3.98847 5.0003L0.210685 1.22155C0.0765477 1.08742 0.00119006 0.905503 0.00119007 0.715815C0.00119007 0.526127 0.0765477 0.344208 0.210685 0.210078C0.344823 0.0759483 0.526753 0.000594887 0.716452 0.000594885C0.906152 0.000594883 1.08808 0.0759483 1.22222 0.210078L5 3.98882L8.77897 0.209483C8.91311 0.0753532 9.09504 -3.1602e-09 9.28474 0C9.47444 3.1602e-09 9.65637 0.0753532 9.7905 0.209483C9.92464 0.343613 10 0.525532 10 0.71522C10 0.904908 9.92464 1.08683 9.7905 1.22096L6.01153 5.0003L9.78931 8.77904Z" fill="#D9D9D9"/>
</svg>
