<svg width="16" height="15" viewBox="0 0 12 11" fill="none" xmlns="http://www.w3.org/2000/svg">
<path d="M8.25 6.5C8.25 6.69891 8.17098 6.88968 8.03033 7.03033C7.88968 7.17098 7.69891 7.25 7.5 7.25H6.75V8C6.75 8.19891 6.67098 8.38968 6.53033 8.53033C6.38968 8.67098 6.19891 8.75 6 8.75C5.80109 8.75 5.61032 8.67098 5.46967 8.53033C5.32902 8.38968 5.25 8.19891 5.25 8V7.25H4.5C4.30109 7.25 4.11032 7.17098 3.96967 7.03033C3.82902 6.88968 3.75 6.69891 3.75 6.5C3.75 6.30109 3.82902 6.11032 3.96967 5.96967C4.11032 5.82902 4.30109 5.75 4.5 5.75H5.25V5C5.25 4.80109 5.32902 4.61032 5.46967 4.46967C5.61032 4.32902 5.80109 4.25 6 4.25C6.19891 4.25 6.38968 4.32902 6.53033 4.46967C6.67098 4.61032 6.75 4.80109 6.75 5V5.75H7.5C7.69891 5.75 7.88968 5.82902 8.03033 5.96967C8.17098 6.11032 8.25 6.30109 8.25 6.5V6.5ZM12 3.75V8.25C11.9992 8.9791 11.7092 9.67811 11.1937 10.1937C10.6781 10.7092 9.9791 10.9992 9.25 11H2.75C2.0209 10.9992 1.32189 10.7092 0.806333 10.1937C0.29078 9.67811 0.000794085 8.9791 0 8.25L0 2.75C0.000794085 2.0209 0.29078 1.32189 0.806333 0.806334C1.32189 0.290781 2.0209 0.000794219 2.75 1.34418e-07H4C4.11645 -6.95784e-05 4.23132 0.0269779 4.3355 0.0790001L6.177 1H9.25C9.9791 1.00079 10.6781 1.29078 11.1937 1.80633C11.7092 2.32189 11.9992 3.0209 12 3.75ZM10.5 3.75C10.4999 3.66602 10.4914 3.58227 10.4745 3.5H1.5V8.25C1.5 8.58152 1.6317 8.89946 1.86612 9.13388C2.10054 9.3683 2.41848 9.5 2.75 9.5H9.25C9.58152 9.5 9.89946 9.3683 10.1339 9.13388C10.3683 8.89946 10.5 8.58152 10.5 8.25V3.75Z" fill="#868E96"/>
</svg>
