<svg width="16" height="16" viewBox="0 0 12 12" fill="none" xmlns="http://www.w3.org/2000/svg">
<path d="M9.25 1H9V0.75C9 0.551088 8.92098 0.360322 8.78033 0.21967C8.63968 0.0790176 8.44891 0 8.25 0V0C8.05109 0 7.86032 0.0790176 7.71967 0.21967C7.57902 0.360322 7.5 0.551088 7.5 0.75V1H4.5V0.75C4.5 0.551088 4.42098 0.360322 4.28033 0.21967C4.13968 0.0790176 3.94891 0 3.75 0V0C3.55109 0 3.36032 0.0790176 3.21967 0.21967C3.07902 0.360322 3 0.551088 3 0.75V1H2.75C2.02065 1 1.32118 1.28973 0.805456 1.80546C0.289731 2.32118 0 3.02065 0 3.75L0 9.25C0 9.97935 0.289731 10.6788 0.805456 11.1945C1.32118 11.7103 2.02065 12 2.75 12H9.25C9.97935 12 10.6788 11.7103 11.1945 11.1945C11.7103 10.6788 12 9.97935 12 9.25V3.75C12 3.02065 11.7103 2.32118 11.1945 1.80546C10.6788 1.28973 9.97935 1 9.25 1ZM9.25 10.5H2.75C2.41848 10.5 2.10054 10.3683 1.86612 10.1339C1.6317 9.89946 1.5 9.58152 1.5 9.25V5H10.5V9.25C10.5 9.58152 10.3683 9.89946 10.1339 10.1339C9.89946 10.3683 9.58152 10.5 9.25 10.5Z" fill="#868E96"/>
</svg>
