<svg width="12" height="15" viewBox="0 0 12 15" fill="none" xmlns="http://www.w3.org/2000/svg">
<path d="M4.59495 10.0569C5.36645 10.981 6.61731 10.981 7.38883 10.057L7.38885 10.0569L8.79896 8.36802C9.06056 8.06539 9.06781 7.56608 8.81514 7.25276C8.56247 6.93944 8.14559 6.93077 7.88399 7.23339C7.8785 7.23972 7.87311 7.24621 7.86782 7.25276L6.64604 8.71557L6.63593 1.53872C6.63593 1.10313 6.3411 0.75 5.97741 0.75C5.61372 0.75 5.31889 1.10313 5.31889 1.53872L5.32811 8.70402L4.116 7.25224C3.8544 6.94962 3.43752 6.9583 3.18485 7.27162C2.93838 7.57727 2.93838 8.06185 3.18485 8.3675L4.59495 10.0569Z" fill="#F1F3F5"/>
<path d="M11.25 9.25C10.8358 9.25 10.5 9.60346 10.5 10.0395V12.4558C10.4997 12.5745 10.4084 12.6708 10.2955 12.671H1.7045C1.59167 12.6707 1.50026 12.5745 1.5 12.4558V10.0395C1.5 9.60346 1.16421 9.25 0.750001 9.25C0.33579 9.25 0 9.60346 0 10.0395V12.4558C0.00110156 13.4462 0.763595 14.2488 1.7045 14.25H10.2955C11.2364 14.2488 11.9989 13.4462 12 12.4558V10.0395C12 9.60346 11.6642 9.25 11.25 9.25Z" fill="#F1F3F5"/>
</svg>
