<svg width="10" height="11" viewBox="0 0 10 11" fill="none" xmlns="http://www.w3.org/2000/svg">
<path d="M8.56832 8.42738C8.33144 8.35965 8.11572 8.2327 7.94151 8.05849C7.7673 7.88428 7.64035 7.66856 7.57262 7.43168V7.43168C7.53701 7.3073 7.46186 7.1979 7.35855 7.12001C7.25524 7.04213 7.12938 7 7 7C6.87062 7 6.74476 7.04213 6.64145 7.12001C6.53814 7.1979 6.46299 7.3073 6.42738 7.43168V7.43168C6.35965 7.66856 6.2327 7.88428 6.05849 8.05849C5.88428 8.2327 5.66856 8.35965 5.43168 8.42738V8.42738C5.3073 8.46299 5.1979 8.53814 5.12001 8.64145C5.04213 8.74476 5 8.87062 5 9C5 9.12938 5.04213 9.25524 5.12001 9.35855C5.1979 9.46186 5.3073 9.53701 5.43168 9.57262V9.57262C5.66856 9.64035 5.88428 9.7673 6.05849 9.94151C6.2327 10.1157 6.35965 10.3314 6.42738 10.5683V10.5683C6.46299 10.6927 6.53814 10.8021 6.64145 10.88C6.74476 10.9579 6.87062 11 7 11C7.12938 11 7.25524 10.9579 7.35855 10.88C7.46186 10.8021 7.53701 10.6927 7.57262 10.5683V10.5683C7.64035 10.3314 7.7673 10.1157 7.94151 9.94151C8.11572 9.7673 8.33144 9.64035 8.56832 9.57262V9.57262C8.6927 9.53701 8.8021 9.46186 8.87999 9.35855C8.95787 9.25524 9 9.12938 9 9C9 8.87062 8.95787 8.74476 8.87999 8.64145C8.8021 8.53814 8.6927 8.46299 8.56832 8.42738V8.42738Z" fill="#495057"/>
<path d="M9.56859 1.42738C9.33164 1.35973 9.11583 1.2328 8.94154 1.05859C8.76725 0.884374 8.64023 0.668619 8.57245 0.431684V0.431684C8.53685 0.307302 8.46171 0.197896 8.3584 0.120012C8.2551 0.0421274 8.12925 0 7.99987 0C7.8705 0 7.74465 0.0421274 7.64134 0.120012C7.53804 0.197896 7.4629 0.307302 7.4273 0.431684V0.431684C7.35957 0.66856 7.23262 0.884277 7.05842 1.05849C6.88422 1.2327 6.66852 1.35965 6.43166 1.42738V1.42738C6.30728 1.46299 6.19788 1.53814 6.12 1.64145C6.04212 1.74476 6 1.87062 6 2C6 2.12938 6.04212 2.25524 6.12 2.35855C6.19788 2.46186 6.30728 2.53701 6.43166 2.57262V2.57262C6.66852 2.64035 6.88422 2.7673 7.05842 2.94151C7.23262 3.11572 7.35957 3.33144 7.4273 3.56832V3.56832C7.4629 3.6927 7.53804 3.8021 7.64134 3.87999C7.74465 3.95787 7.8705 4 7.99987 4C8.12925 4 8.2551 3.95787 8.3584 3.87999C8.46171 3.8021 8.53685 3.6927 8.57245 3.56832V3.56832C8.64018 3.33144 8.76713 3.11572 8.94133 2.94151C9.11553 2.7673 9.33123 2.64035 9.56809 2.57262V2.57262C9.69248 2.53706 9.80191 2.46197 9.87984 2.35869C9.95776 2.25541 9.99994 2.12957 10 2.00019C10.0001 1.87081 9.95799 1.74493 9.88015 1.64158C9.80232 1.53824 9.69295 1.46305 9.56859 1.42738V1.42738Z" fill="#495057"/>
<path d="M0.539327 6.21577C0.83544 6.30043 1.1051 6.45913 1.32288 6.67689C1.54065 6.89465 1.69936 7.1643 1.78403 7.46039V7.46039C1.82855 7.61587 1.92248 7.75263 2.05163 7.84999C2.18077 7.94734 2.33811 8 2.49984 8C2.66158 8 2.81892 7.94734 2.94806 7.84999C3.07721 7.75263 3.17114 7.61587 3.21566 7.46039V7.46039C3.30033 7.1643 3.45903 6.89465 3.67681 6.67689C3.89458 6.45913 4.16425 6.30043 4.46036 6.21577V6.21577C4.61585 6.17126 4.75261 6.07733 4.84998 5.94819C4.94734 5.81905 5 5.66172 5 5.5C5 5.33828 4.94734 5.18095 4.84998 5.05181C4.75261 4.92267 4.61585 4.82874 4.46036 4.78423V4.78423C4.16425 4.69957 3.89458 4.54087 3.67681 4.32311C3.45903 4.10535 3.30033 3.8357 3.21566 3.53961V3.53961C3.17114 3.38413 3.07721 3.24737 2.94806 3.15001C2.81892 3.05266 2.66158 3 2.49984 3C2.33811 3 2.18077 3.05266 2.05163 3.15001C1.92248 3.24737 1.82855 3.38413 1.78403 3.53961V3.53961C1.69942 3.83563 1.5408 4.10523 1.32314 4.32298C1.10549 4.54074 0.83595 4.69948 0.539952 4.78423V4.78423C0.384444 4.82868 0.247638 4.92254 0.15022 5.05164C0.052802 5.18074 7.06976e-05 5.33804 7.10386e-08 5.49976C-7.05555e-05 5.66149 0.0525233 5.81884 0.149828 5.94802C0.247134 6.0772 0.383858 6.17119 0.539327 6.21577V6.21577Z" fill="#495057"/>
</svg>
