<svg width="28" height="28" viewBox="0 0 28 28" fill="none" xmlns="http://www.w3.org/2000/svg">
<path d="M11.0945 9.34371C11.4404 9.34371 11.7785 9.44629 12.0661 9.63847C12.3537 9.83066 12.5778 10.1038 12.7102 10.4234C12.8426 10.743 12.8772 11.0947 12.8097 11.434C12.7422 11.7732 12.5757 12.0849 12.3311 12.3295C12.0865 12.5741 11.7749 12.7407 11.4357 12.8082C11.0964 12.8756 10.7448 12.841 10.4252 12.7086C10.1057 12.5762 9.83254 12.3521 9.64037 12.0644C9.44821 11.7768 9.34564 11.4387 9.34564 11.0927C9.34564 10.6289 9.52989 10.184 9.85786 9.85599C10.1858 9.52798 10.6307 9.34371 11.0945 9.34371ZM23.9194 8.17769C22.8726 8.21634 21.8807 8.65611 21.1492 9.40594C20.4176 10.1558 20.0025 11.1582 19.9896 12.2058C19.9767 13.2533 20.3671 14.2657 21.08 15.0333C21.7928 15.8009 22.7736 16.2649 23.8191 16.3293C22.3617 20.5095 18.6355 23.5586 13.5067 24.4915C13.4281 24.5063 13.3471 24.503 13.2699 24.4818C13.1927 24.4605 13.1214 24.422 13.0614 24.369C12.9924 24.3126 12.937 24.2414 12.8993 24.1606C12.8615 24.0799 12.8424 23.9917 12.8433 23.9026V22.0195C15.2486 21.6459 17.4607 20.4811 19.1299 18.7092C19.2878 18.5423 19.4113 18.346 19.4934 18.1315C19.5755 17.9169 19.6145 17.6883 19.6082 17.4586C19.6019 17.2289 19.5505 17.0028 19.4568 16.793C19.3631 16.5833 19.229 16.394 19.0622 16.236C18.8954 16.0781 18.6991 15.9546 18.4846 15.8725C18.27 15.7904 18.0414 15.7514 17.8118 15.7577C17.5822 15.7639 17.356 15.8154 17.1463 15.9091C16.9365 16.0028 16.7473 16.1368 16.5894 16.3037C15.8851 17.0545 15.0337 17.6523 14.0884 18.0597C13.143 18.4671 12.1239 18.6755 11.0945 18.6719C9.79512 18.6731 8.51727 18.3402 7.38365 17.7051C6.25002 17.07 5.29872 16.1541 4.6211 15.0453C3.94348 13.9365 3.5623 12.6721 3.51417 11.3734C3.46605 10.0748 3.75259 8.78567 4.34629 7.62975C4.93999 6.47383 5.82089 5.48999 6.90439 4.77273C7.98789 4.05546 9.2376 3.62885 10.5335 3.53389C11.8294 3.43892 13.1279 3.67878 14.3044 4.23044C15.4809 4.78209 16.4958 5.627 17.2516 6.68402C17.3845 6.87284 17.5536 7.03347 17.7489 7.15662C17.9442 7.27977 18.162 7.36301 18.3897 7.40154C18.6174 7.44007 18.8504 7.43312 19.0754 7.3811C19.3004 7.32908 19.5129 7.23302 19.7005 7.09845C19.8882 6.96389 20.0473 6.79348 20.1688 6.59708C20.2903 6.40068 20.3717 6.18216 20.4082 5.95414C20.4448 5.72612 20.4359 5.49311 20.382 5.26855C20.3281 5.044 20.2302 4.83235 20.094 4.64582C19.034 3.15919 17.623 1.95766 15.9866 1.14815C14.3501 0.338643 12.5389 -0.0537407 10.7142 0.00591455C8.88942 0.0655698 7.10772 0.575414 5.5276 1.49008C3.94748 2.40475 2.61794 3.69587 1.65728 5.24857C0.696628 6.80126 0.134648 8.56738 0.0213499 10.3898C-0.0919482 12.2121 0.246949 14.0343 1.00789 15.694C1.76882 17.3538 2.9282 18.7997 4.38286 19.903C5.83752 21.0064 7.54235 21.7331 9.34564 22.0183V23.9073C9.34516 24.5082 9.47707 25.1018 9.73198 25.6459C9.98689 26.19 10.3585 26.6713 10.8205 27.0555C11.5465 27.6646 12.4635 27.999 13.4111 28C13.6528 27.9996 13.8939 27.9778 14.1316 27.9347C22.427 26.4282 28 20.1294 28 12.2588C27.9924 11.1787 27.56 10.1451 26.7964 9.38144C26.0328 8.61774 24.9993 8.18533 23.9194 8.17769V8.17769Z" fill="#55AAFF"/>
</svg>
