<svg width="40" height="40" viewBox="0 0 40 40" fill="none" xmlns="http://www.w3.org/2000/svg">
<path d="M0 20C0 8.95431 8.95431 0 20 0C31.0457 0 40 8.95431 40 20C40 31.0457 31.0457 40 20 40C8.95431 40 0 31.0457 0 20Z" fill="#3574DC"/>
<path d="M17.1326 28.6972C16.8734 28.6973 16.6208 28.6136 16.4111 28.4583C16.2014 28.303 16.0455 28.0839 15.9655 27.8326C15.8856 27.5813 15.8859 27.3106 15.9663 27.0595C16.0466 26.8083 16.2031 26.5896 16.413 26.4346C18.467 24.9179 18.7557 22.1169 18.7663 19.5768C18.7678 19.246 18.8979 18.9293 19.1281 18.6961C19.3583 18.4629 19.6699 18.3322 19.9944 18.3326H19.9993C20.1605 18.3333 20.3199 18.3663 20.4685 18.4297C20.6171 18.4932 20.752 18.5859 20.8655 18.7026C20.9789 18.8192 21.0687 18.9575 21.1297 19.1095C21.1907 19.2615 21.2217 19.4243 21.221 19.5885C21.2128 21.5052 21.194 25.9938 17.8521 28.4589C17.6433 28.6143 17.3912 28.6978 17.1326 28.6972ZM22.0615 29.5256C22.7263 28.6815 23.2725 27.7472 23.6846 26.7496C23.8119 26.4444 23.815 26.1001 23.6933 25.7926C23.5715 25.485 23.3349 25.2393 23.0354 25.1096C22.7359 24.9798 22.3981 24.9767 22.0963 25.1007C21.7945 25.2248 21.5535 25.466 21.4262 25.7713C21.1052 26.5547 20.6784 27.2885 20.158 27.9514C19.9532 28.209 19.8571 28.5389 19.891 28.8687C19.9249 29.1985 20.0859 29.501 20.3387 29.7098C20.5914 29.9185 20.9152 30.0164 21.2388 29.9819C21.5623 29.9473 21.8592 29.7832 22.064 29.5256H22.0615ZM24.8482 21.3269C24.9005 20.476 24.9005 19.7185 24.9005 19.166C24.9007 18.366 24.7125 17.5776 24.3517 16.8671C23.991 16.1565 23.4682 15.5446 22.8273 15.0826C22.1865 14.6207 21.4462 14.3222 20.6687 14.2122C19.8912 14.1023 19.0991 14.1841 18.3591 14.4508C18.2048 14.5035 18.0623 14.587 17.94 14.6964C17.8176 14.8058 17.7179 14.939 17.6466 15.0881C17.5752 15.2372 17.5337 15.3993 17.5245 15.5649C17.5152 15.7305 17.5384 15.8963 17.5926 16.0527C17.6469 16.2091 17.7311 16.3529 17.8405 16.4758C17.9498 16.5987 18.0821 16.6981 18.2295 16.7684C18.377 16.8386 18.5367 16.8783 18.6993 16.885C18.8619 16.8917 19.0242 16.8654 19.1768 16.8075C19.5469 16.6742 19.943 16.6333 20.3318 16.6883C20.7206 16.7433 21.0908 16.8926 21.4112 17.1237C21.7317 17.3548 21.993 17.6609 22.1734 18.0162C22.3537 18.3716 22.4477 18.7659 22.4475 19.166C22.4475 19.7152 22.4475 20.3985 22.4 21.1719C22.3897 21.336 22.4113 21.5005 22.4635 21.6561C22.5157 21.8117 22.5975 21.9553 22.7042 22.0786C22.8109 22.2019 22.9405 22.3026 23.0854 22.3748C23.2303 22.447 23.3878 22.4894 23.5489 22.4995C23.574 22.4995 23.5993 22.4995 23.6249 22.4995C23.937 22.4994 24.2374 22.3781 24.4648 22.1603C24.6923 21.9424 24.8296 21.6444 24.849 21.3269H24.8482ZM14.018 25.7963C14.5507 25.7328 15.0647 25.5574 15.5275 25.2812C17.5234 24.0604 17.5332 21.4752 17.5414 19.5877C17.5421 19.4234 17.5109 19.2607 17.4499 19.1087C17.3888 18.9567 17.2989 18.8185 17.1854 18.702C17.0718 18.5854 16.9369 18.4928 16.7882 18.4294C16.6396 18.3661 16.4801 18.3331 16.319 18.3326H16.3149C15.9905 18.3326 15.6792 18.4636 15.4493 18.697C15.2195 18.9303 15.0897 19.247 15.0884 19.5777C15.081 21.5652 14.9477 22.7211 14.2707 23.137C14.0973 23.2344 13.9066 23.2955 13.7098 23.317C13.4006 23.3571 13.1181 23.5156 12.9195 23.7603C12.7208 24.0051 12.6211 24.3177 12.6404 24.6347C12.6598 24.9517 12.7968 25.2493 13.0237 25.4671C13.2506 25.6848 13.5502 25.8064 13.8619 25.8071C13.9141 25.8071 13.9663 25.8035 14.018 25.7963ZM27.1238 29.2731C28.4572 26.0817 29.0936 22.633 28.9889 19.166C28.99 18.0091 28.7753 16.8626 28.356 15.7875C28.2359 15.4794 28.0005 15.2325 27.7018 15.1013C27.4031 14.97 27.0655 14.965 26.7632 15.0875C26.4609 15.2099 26.2187 15.4497 26.0899 15.7542C25.961 16.0586 25.9562 16.4028 26.0763 16.7109C26.3812 17.492 26.5372 18.3253 26.5359 19.166C26.6351 22.2712 26.0756 25.3617 24.8956 28.2264C24.7594 28.5275 24.7462 28.8715 24.8588 29.1826C24.9714 29.4936 25.2007 29.7464 25.4962 29.8852C25.7917 30.024 26.1291 30.0375 26.4344 29.9227C26.7396 29.8079 26.9876 29.5742 27.1238 29.2731ZM13.453 20.416V19.166C13.4532 18.013 13.7467 16.8797 14.3049 15.8768C14.8632 14.874 15.6671 14.0358 16.6381 13.4442C17.6091 12.8526 18.7141 12.5278 19.8451 12.5015C20.9761 12.4752 22.0945 12.7482 23.091 13.2941C23.3766 13.4455 23.7092 13.4764 24.017 13.3802C24.3248 13.2839 24.5831 13.0681 24.7362 12.7794C24.8892 12.4907 24.9248 12.1522 24.8351 11.8371C24.7455 11.5219 24.5378 11.2553 24.257 11.0948C22.8868 10.3432 21.3488 9.96681 19.7932 10.0023C18.2376 10.0378 16.7176 10.484 15.3818 11.2972C14.046 12.1105 12.9401 13.263 12.1721 14.6422C11.404 16.0214 11.0002 17.5801 11 19.166V20.416C11 20.7476 11.1292 21.0655 11.3592 21.3C11.5893 21.5344 11.9012 21.6661 12.2265 21.6661C12.5518 21.6661 12.8638 21.5344 13.0938 21.3C13.3238 21.0655 13.453 20.7476 13.453 20.416Z" fill="#F8F9FA"/>
</svg>
