<svg width="12" height="12" viewBox="0 0 12 12" fill="none" xmlns="http://www.w3.org/2000/svg">
<path d="M0.109716 2.15165C0.0584125 2.06775 0.0241824 1.97458 0.00898136 1.87747C-0.00621968 1.78036 -0.00209383 1.68122 0.0211232 1.5857C0.0443402 1.49018 0.0861936 1.40016 0.144292 1.32079C0.202391 1.24141 0.275597 1.17423 0.359728 1.12308L1.9938 0.125442C2.07783 0.0696213 2.17229 0.0312986 2.27153 0.0127705C2.37076 -0.0057575 2.47272 -0.00410946 2.5713 0.0176159C2.66988 0.0393412 2.76305 0.0806967 2.84522 0.139204C2.9274 0.197711 2.99689 0.272166 3.04952 0.358107C3.10216 0.444047 3.13687 0.539705 3.15156 0.639346C3.16625 0.738988 3.16063 0.840563 3.13502 0.937984C3.10942 1.03541 3.06437 1.12667 3.00256 1.2063C2.94076 1.28594 2.86347 1.3523 2.77534 1.40143L1.14076 2.39907C1.05665 2.45025 0.96326 2.4844 0.865918 2.49956C0.768576 2.51473 0.669193 2.51061 0.573445 2.48745C0.477698 2.46429 0.387464 2.42253 0.307896 2.36458C0.228328 2.30662 0.160985 2.23359 0.109716 2.14966V2.15165ZM11.6437 8.9855C11.4745 8.88134 11.2706 8.84852 11.0771 8.89426C10.8835 8.94001 10.7161 9.06057 10.6117 9.22943L9.61165 10.8461C9.55757 10.9297 9.52075 11.0232 9.50335 11.1212C9.48595 11.2192 9.48831 11.3197 9.5103 11.4167C9.53229 11.5138 9.57346 11.6055 9.63141 11.6865C9.68936 11.7675 9.76292 11.8361 9.84779 11.8884C9.93265 11.9407 10.0271 11.9755 10.1257 11.991C10.2242 12.0064 10.3248 12.002 10.4217 11.9782C10.5185 11.9543 10.6096 11.9115 10.6896 11.8521C10.7696 11.7927 10.837 11.7179 10.8877 11.6322L11.8877 10.0156C11.9396 9.93194 11.9745 9.83893 11.9903 9.74185C12.0061 9.64477 12.0026 9.54554 11.9799 9.44982C11.9573 9.3541 11.9159 9.26379 11.8582 9.18403C11.8005 9.10427 11.7276 9.03664 11.6437 8.98501V8.9855ZM10.4172 7.73845L8.6171 10.664C8.39819 11.0218 8.1004 11.325 7.74637 11.5507C7.39234 11.7764 6.9914 11.9186 6.57401 11.9665C6.46396 11.9791 6.35328 11.9856 6.24249 11.9859C5.62789 11.9835 5.03182 11.7757 4.54942 11.3958C4.15702 11.7753 3.63129 11.9866 3.08474 11.9843C2.53819 11.982 2.01425 11.7664 1.62504 11.3836C1.23584 11.0008 1.01229 10.4812 1.00224 9.9361C0.992196 9.39095 1.19645 8.86354 1.57128 8.46673L0.824248 7.7185C0.525266 7.4227 0.297816 7.06279 0.159186 6.66614C0.0205565 6.26949 -0.0256044 5.84653 0.0242123 5.42941C0.0716135 5.01644 0.212748 4.61967 0.436892 4.26927C0.661036 3.91886 0.962292 3.62404 1.31777 3.40719L4.0614 1.71768C4.8182 1.23459 5.70285 0.989051 6.601 1.01279C7.49916 1.03654 8.36953 1.32847 9.09962 1.85086L9.71965 1.23183C9.86036 1.09146 10.0512 1.01261 10.2502 1.01261C10.4492 1.01261 10.64 1.09146 10.7807 1.23183C10.9214 1.37219 11.0004 1.56257 11.0004 1.76108C11.0004 1.95958 10.9214 2.14996 10.7807 2.29033L10.1612 2.90837C10.6588 3.60657 10.9471 4.43157 10.9924 5.28707C11.0378 6.14258 10.8383 6.9933 10.4172 7.73995V7.73845ZM8.6171 3.39521C8.13193 2.90826 7.49412 2.6019 6.80998 2.5272C6.12584 2.4525 5.4367 2.61396 4.85743 2.98468L2.10731 4.68068C1.94507 4.77995 1.80763 4.91478 1.7054 5.07493C1.60317 5.23508 1.53884 5.41635 1.51728 5.60499C1.49443 5.7978 1.51598 5.99327 1.58027 6.17652C1.64456 6.35977 1.74991 6.52598 1.8883 6.66249L5.34445 10.1183C5.48144 10.2544 5.6475 10.3577 5.8302 10.4207C6.0129 10.4837 6.20751 10.5046 6.39946 10.4819C6.5914 10.4592 6.77572 10.3935 6.93861 10.2897C7.1015 10.1858 7.23873 10.0466 7.34004 9.88238L9.12662 6.98024C9.44356 6.40886 9.56532 5.75004 9.47348 5.10347C9.38164 4.4569 9.08119 3.85776 8.6176 3.39671L8.6171 3.39521Z" fill="#495057"/>
</svg>
