<svg width="16" height="16" viewBox="0 0 12 12" fill="none" xmlns="http://www.w3.org/2000/svg">
<g clip-path="url(#clip0_84_52)">
<path d="M9.25001 12H2.74999C1.2319 11.9983 0.00166406 10.7681 0 9.25001V2.74999C0.00166406 1.2319 1.2319 0.00166406 2.74999 0H9.24998C10.7681 0.00166406 11.9983 1.2319 12 2.74999V9.24998C11.9983 10.7681 10.7681 11.9983 9.25001 12ZM2.74999 1.5C2.05964 1.5 1.5 2.05964 1.5 2.74999V9.24998C1.5 9.94036 2.05964 10.5 2.74999 10.5H9.24998C9.94036 10.5 10.5 9.94036 10.5 9.25001V2.74999C10.5 2.05964 9.94036 1.5 9.25001 1.5H2.74999Z" fill="#868E96"/>
<path d="M4.83356 8.89346C4.51804 8.89367 4.21556 8.76765 3.99356 8.54347L2.50005 7.05247C2.20706 6.75966 2.20692 6.2848 2.49972 5.9918C2.49984 5.99169 2.49996 5.99157 2.50005 5.99145C2.79293 5.69867 3.26768 5.69867 3.56055 5.99145L4.83356 7.26395L8.43956 3.65794C8.73243 3.36516 9.20718 3.36516 9.50006 3.65794C9.79305 3.95075 9.79319 4.42561 9.50039 4.71861C9.50027 4.71872 9.50015 4.71884 9.50006 4.71893L5.67307 8.54595C5.45083 8.7692 5.14856 8.89433 4.83356 8.89346Z" fill="#868E96"/>
</g>
<defs>
<clipPath id="clip0_84_52">
<rect width="12" height="12" fill="white"/>
</clipPath>
</defs>
</svg>
